<svg width="595" height="351" viewBox="0 0 595 351" fill="none" xmlns="http://www.w3.org/2000/svg">
<path d="M433.058 190.093L158.703 184.716L161.91 21.8123L208.037 0L436.712 4.48129L433.058 190.093Z" fill="#F0F0F0"/>
<path d="M434.91 187.42H160.504V25.6727L209.698 1.77344H434.91V187.42Z" fill="#CAE2FC"/>
<path d="M416.477 173.663L176.226 170.557L179.877 25.4821L197.721 12.8516L419.189 16.0607L416.477 173.663Z" fill="#A9D1FC"/>
<path d="M419.189 170.559H176.226V28.4328L190.904 16.0625H419.189V170.559Z" fill="white"/>
<path opacity="0.1" d="M160.504 25.6742L180.362 38.468C181.281 39.0607 182.503 38.8342 183.15 37.9532L209.698 1.77344L160.504 25.6742Z" fill="black"/>
<path d="M160.504 25.6727L180.167 34.2456C181.504 34.828 183.068 34.45 183.988 33.3205L209.698 1.77344L160.504 25.6727Z" fill="#A9D1FC"/>
<path d="M196.956 99.9164L232.539 50.0029H241.8V99.6239C244.14 99.5589 246.057 99.3964 247.552 99.1365C249.047 98.8115 250.217 98.3241 251.062 97.6742C251.906 96.9592 252.491 96.0169 252.816 94.847C253.141 93.6772 253.304 92.1499 253.304 90.2651H256.911V113.955H253.304C253.304 112.2 253.141 110.77 252.816 109.665C252.491 108.56 251.906 107.715 251.062 107.13C250.217 106.481 249.047 106.058 247.552 105.863C246.057 105.603 244.14 105.441 241.8 105.376V108.398C241.8 110.672 241.898 112.655 242.093 114.344C242.353 116.034 242.808 117.464 243.458 118.634C244.107 119.739 245.017 120.584 246.187 121.169C247.422 121.754 248.982 122.078 250.867 122.143V126.043H217.428V122.143C219.703 122.078 221.523 121.754 222.888 121.169C224.317 120.519 225.39 119.641 226.105 118.536C226.885 117.432 227.405 116.099 227.665 114.539C227.925 112.98 228.055 111.16 228.055 109.08V105.766H196.956V99.9164ZM228.055 68.038H227.665L205.242 99.6239H228.055V68.038ZM297.472 50.0029C301.956 50.0029 306.148 51.0102 310.047 53.025C314.012 55.0397 317.456 57.8018 320.381 61.3114C323.306 64.8209 325.613 68.9479 327.303 73.6923C329.057 78.4367 329.935 83.571 329.935 89.0953C329.935 94.3596 329.057 99.2989 327.303 103.913C325.613 108.528 323.306 112.557 320.381 116.002C317.456 119.381 314.012 122.078 310.047 124.093C306.148 126.043 301.956 127.018 297.472 127.018C293.052 127.018 288.893 126.043 284.993 124.093C281.159 122.078 277.779 119.381 274.855 116.002C271.995 112.557 269.72 108.528 268.03 103.913C266.341 99.2989 265.496 94.3596 265.496 89.0953C265.496 83.571 266.341 78.4367 268.03 73.6923C269.72 68.9479 271.995 64.8209 274.855 61.3114C277.779 57.8018 281.159 55.0397 284.993 53.025C288.893 51.0102 293.052 50.0029 297.472 50.0029ZM297.472 121.364C299.811 121.364 301.891 120.876 303.711 119.901C305.596 118.861 307.188 117.107 308.488 114.637C309.787 112.167 310.762 108.885 311.412 104.791C312.127 100.696 312.485 95.5619 312.485 89.3877C312.485 82.9536 312.127 77.5918 311.412 73.3023C310.762 68.9479 309.787 65.4708 308.488 62.8712C307.188 60.2715 305.596 58.4193 303.711 57.3144C301.891 56.2095 299.811 55.6571 297.472 55.6571C295.132 55.6571 293.02 56.2095 291.135 57.3144C289.315 58.4193 287.755 60.2715 286.456 62.8712C285.156 65.4708 284.148 68.9479 283.433 73.3023C282.783 77.5918 282.459 82.9536 282.459 89.3877C282.459 95.5619 282.783 100.696 283.433 104.791C284.148 108.885 285.156 112.167 286.456 114.637C287.755 117.107 289.315 118.861 291.135 119.901C293.02 120.876 295.132 121.364 297.472 121.364ZM335.285 99.9164L370.868 50.0029H380.129V99.6239C382.469 99.5589 384.386 99.3964 385.881 99.1365C387.376 98.8115 388.546 98.3241 389.391 97.6742C390.236 96.9592 390.821 96.0169 391.145 94.847C391.47 93.6772 391.633 92.1499 391.633 90.2651H395.24V113.955H391.633C391.633 112.2 391.47 110.77 391.145 109.665C390.821 108.56 390.236 107.715 389.391 107.13C388.546 106.481 387.376 106.058 385.881 105.863C384.386 105.603 382.469 105.441 380.129 105.376V108.398C380.129 110.672 380.227 112.655 380.422 114.344C380.682 116.034 381.137 117.464 381.787 118.634C382.437 119.739 383.346 120.584 384.516 121.169C385.751 121.754 387.311 122.078 389.196 122.143V126.043H355.758V122.143C358.032 122.078 359.852 121.754 361.217 121.169C362.647 120.519 363.719 119.641 364.434 118.536C365.214 117.432 365.734 116.099 365.994 114.539C366.254 112.98 366.384 111.16 366.384 109.08V105.766H335.285V99.9164ZM366.384 68.038H365.994L343.572 99.6239H366.384V68.038Z" fill="#B03030"/>
<path opacity="0.1" d="M420.417 21.7914C423.012 21.7914 425.116 19.6922 425.116 17.1027C425.116 14.5132 423.012 12.4141 420.417 12.4141C417.821 12.4141 415.718 14.5132 415.718 17.1027C415.718 19.6922 417.821 21.7914 420.417 21.7914Z" fill="black"/>
<path d="M419.986 20.7523C422.581 20.7523 424.685 18.6531 424.685 16.0637C424.685 13.4742 422.581 11.375 419.986 11.375C417.391 11.375 415.287 13.4742 415.287 16.0637C415.287 18.6531 417.391 20.7523 419.986 20.7523Z" fill="#66A1E3"/>
<path d="M422.635 16.0609C422.635 17.5198 421.448 18.7038 419.986 18.7038C418.524 18.7038 417.337 17.5213 417.337 16.0609C417.337 14.6004 418.523 13.418 419.986 13.418C421.448 13.418 422.635 14.6004 422.635 16.0609Z" fill="#78B3F5"/>
<path d="M420.262 13.7165C420.95 13.7165 421.572 13.9857 422.042 14.4151C421.558 13.8121 420.821 13.418 419.985 13.418C418.523 13.418 417.336 14.6004 417.336 16.0609C417.336 16.833 417.674 17.5213 418.204 18.0052C417.84 17.5522 417.613 16.9859 417.613 16.3594C417.615 14.9005 418.8 13.7165 420.262 13.7165Z" fill="#A8D1FF"/>
<path opacity="0.1" d="M422.85 181.674C425.445 181.674 427.549 179.575 427.549 176.986C427.549 174.396 425.445 172.297 422.85 172.297C420.255 172.297 418.151 174.396 418.151 176.986C418.151 179.575 420.255 181.674 422.85 181.674Z" fill="black"/>
<path d="M422.42 180.639C425.015 180.639 427.119 178.54 427.119 175.95C427.119 173.361 425.015 171.262 422.42 171.262C419.825 171.262 417.721 173.361 417.721 175.95C417.721 178.54 419.825 180.639 422.42 180.639Z" fill="#66A1E3"/>
<path d="M425.069 175.948C425.069 177.407 423.882 178.59 422.42 178.59C420.958 178.59 419.771 177.408 419.771 175.948C419.771 174.489 420.958 173.305 422.42 173.305C423.882 173.305 425.069 174.487 425.069 175.948Z" fill="#78B3F5"/>
<path d="M422.697 173.603C423.385 173.603 424.007 173.872 424.477 174.302C423.993 173.699 423.256 173.305 422.42 173.305C420.956 173.305 419.771 174.489 419.771 175.948C419.771 176.72 420.109 177.408 420.639 177.892C420.275 177.439 420.048 176.873 420.048 176.246C420.048 174.787 421.233 173.603 422.697 173.603Z" fill="#A8D1FF"/>
<path opacity="0.1" d="M176.441 176.463C179.036 176.463 181.14 174.364 181.14 171.775C181.14 169.185 179.036 167.086 176.441 167.086C173.845 167.086 171.742 169.185 171.742 171.775C171.742 174.364 173.845 176.463 176.441 176.463Z" fill="black"/>
<path d="M176.012 175.425C178.606 175.425 180.709 173.327 180.709 170.738C180.709 168.149 178.606 166.051 176.012 166.051C173.417 166.051 171.314 168.149 171.314 170.738C171.314 173.327 173.417 175.425 176.012 175.425Z" fill="#66A1E3"/>
<path d="M178.659 170.737C178.659 172.196 177.472 173.38 176.01 173.38C174.548 173.38 173.362 172.197 173.362 170.737C173.362 169.276 174.548 168.094 176.01 168.094C177.474 168.094 178.659 169.278 178.659 170.737Z" fill="#78B3F5"/>
<path d="M176.287 168.392C176.976 168.392 177.598 168.661 178.068 169.091C177.583 168.488 176.846 168.094 176.01 168.094C174.548 168.094 173.362 169.276 173.362 170.737C173.362 171.509 173.699 172.197 174.23 172.681C173.866 172.228 173.639 171.662 173.639 171.035C173.639 169.576 174.825 168.392 176.287 168.392Z" fill="#A8D1FF"/>
<path d="M595 276H0V303H595V276Z" fill="url(#paint0_radial_252_254)"/>
<path d="M130.125 251.777C130.125 251.777 126.872 212.692 132.675 203.8C138.074 195.526 152.634 199.565 149.775 212.898C147.916 221.567 139.526 250.735 139.526 250.735L130.125 251.777Z" fill="url(#paint1_linear_252_254)"/>
<path d="M135.875 204.679C137.967 201.473 141.435 200.123 144.732 200.439C140.714 198.543 135.47 199.52 132.675 203.803C126.873 212.695 130.125 251.779 130.125 251.779L133.232 251.435C132.743 244.799 130.678 212.643 135.875 204.679Z" fill="#ADE68F"/>
<path d="M135.782 201.911L134.158 198.715" stroke="#88BD6D" stroke-width="0.963546" stroke-miterlimit="10" stroke-linecap="round" stroke-linejoin="round"/>
<path d="M141.916 200.843L142.238 197.273" stroke="#88BD6D" stroke-width="0.963546" stroke-miterlimit="10" stroke-linecap="round" stroke-linejoin="round"/>
<path d="M146.741 203.539L148.385 200.352" stroke="#88BD6D" stroke-width="0.963546" stroke-miterlimit="10" stroke-linecap="round" stroke-linejoin="round"/>
<path d="M148.948 207.816L151.519 205.312" stroke="#88BD6D" stroke-width="0.963546" stroke-miterlimit="10" stroke-linecap="round" stroke-linejoin="round"/>
<path d="M145.833 220.633L149.285 221.62" stroke="#88BD6D" stroke-width="0.963546" stroke-miterlimit="10" stroke-linecap="round" stroke-linejoin="round"/>
<path d="M144.709 226.702L148.121 225.586" stroke="#88BD6D" stroke-width="0.963546" stroke-miterlimit="10" stroke-linecap="round" stroke-linejoin="round"/>
<path d="M143.731 230.664L146.171 231.027" stroke="#88BD6D" stroke-width="0.963546" stroke-miterlimit="10" stroke-linecap="round" stroke-linejoin="round"/>
<path d="M148.795 212.259L151.592 210.852" stroke="#88BD6D" stroke-width="0.963546" stroke-miterlimit="10" stroke-linecap="round" stroke-linejoin="round"/>
<path d="M147.222 216.692L150.354 216.641" stroke="#88BD6D" stroke-width="0.963546" stroke-miterlimit="10" stroke-linecap="round" stroke-linejoin="round"/>
<path d="M134.034 205.583L131.052 203.586" stroke="#88BD6D" stroke-width="0.963546" stroke-miterlimit="10" stroke-linecap="round" stroke-linejoin="round"/>
<path d="M119.694 246.642C119.694 246.642 104.195 204.388 107.906 192.792C111.36 182.001 128.698 182.055 129.594 197.673C130.177 207.827 129.777 242.64 129.777 242.64L119.694 246.642Z" fill="url(#paint2_linear_252_254)"/>
<path d="M111.713 192.794C113.052 188.613 116.477 186.069 120.221 185.419C115.199 184.539 109.694 187.208 107.906 192.794C104.195 204.391 119.694 246.645 119.694 246.645L123.026 245.323C120.465 238.129 108.39 203.179 111.713 192.794Z" fill="#ADE68F"/>
<path d="M110.101 208.473H106.662" stroke="#88BD6D" stroke-width="1.10549" stroke-miterlimit="10" stroke-linecap="round" stroke-linejoin="round"/>
<path d="M111.436 215.594L107.331 215.947" stroke="#88BD6D" stroke-width="1.10549" stroke-miterlimit="10" stroke-linecap="round" stroke-linejoin="round"/>
<path d="M113.358 222.168L109.516 223.65" stroke="#88BD6D" stroke-width="1.10549" stroke-miterlimit="10" stroke-linecap="round" stroke-linejoin="round"/>
<path d="M110.769 189.763L107.999 186.719" stroke="#88BD6D" stroke-width="1.10549" stroke-miterlimit="10" stroke-linecap="round" stroke-linejoin="round"/>
<path d="M117.228 186.718L116.5 182.672" stroke="#88BD6D" stroke-width="1.10549" stroke-miterlimit="10" stroke-linecap="round" stroke-linejoin="round"/>
<path d="M123.391 188.243L124.237 184.219" stroke="#88BD6D" stroke-width="1.10549" stroke-miterlimit="10" stroke-linecap="round" stroke-linejoin="round"/>
<path d="M127.133 192.313L129.216 188.766" stroke="#88BD6D" stroke-width="1.10549" stroke-miterlimit="10" stroke-linecap="round" stroke-linejoin="round"/>
<path d="M127.59 207.43L131.71 207.477" stroke="#88BD6D" stroke-width="1.10549" stroke-miterlimit="10" stroke-linecap="round" stroke-linejoin="round"/>
<path d="M128.193 214.484L131.628 212.215" stroke="#88BD6D" stroke-width="1.10549" stroke-miterlimit="10" stroke-linecap="round" stroke-linejoin="round"/>
<path d="M128.318 219.165L131.127 218.824" stroke="#88BD6D" stroke-width="1.10549" stroke-miterlimit="10" stroke-linecap="round" stroke-linejoin="round"/>
<path d="M128.318 197.268L130.983 194.863" stroke="#88BD6D" stroke-width="1.10549" stroke-miterlimit="10" stroke-linecap="round" stroke-linejoin="round"/>
<path d="M127.926 202.643L131.375 201.637" stroke="#88BD6D" stroke-width="1.10549" stroke-miterlimit="10" stroke-linecap="round" stroke-linejoin="round"/>
<path d="M109.952 194.353L106.046 193.047" stroke="#88BD6D" stroke-width="1.10549" stroke-miterlimit="10" stroke-linecap="round" stroke-linejoin="round"/>
<path d="M109.382 199.715L105.282 200.136" stroke="#88BD6D" stroke-width="1.10549" stroke-miterlimit="10" stroke-linecap="round" stroke-linejoin="round"/>
<path d="M114.11 195.016C114.525 195.016 114.862 194.68 114.862 194.266C114.862 193.851 114.525 193.516 114.11 193.516C113.695 193.516 113.358 193.851 113.358 194.266C113.358 194.68 113.695 195.016 114.11 195.016Z" fill="#88BD6D"/>
<path d="M121.52 197.773C121.52 198.465 120.957 199.026 120.264 199.026C119.571 199.026 119.008 198.465 119.008 197.773C119.008 197.08 119.571 196.52 120.264 196.52C120.958 196.52 121.52 197.081 121.52 197.773Z" fill="#88BD6D"/>
<path d="M126.207 211.117C125.404 212.209 123.867 212.444 122.773 211.642C121.679 210.841 121.443 209.307 122.247 208.216C123.05 207.124 124.587 206.889 125.681 207.691C126.775 208.492 127.011 210.026 126.207 211.117Z" fill="#88BD6D"/>
<path d="M121.719 220.775C121.154 221.543 120.205 221.806 119.601 221.363C118.996 220.921 118.964 219.938 119.529 219.17C120.093 218.403 121.042 218.139 121.647 218.582C122.251 219.025 122.283 220.007 121.719 220.775Z" fill="#88BD6D"/>
<path d="M117.571 203.775C118.163 203.775 118.643 203.296 118.643 202.706C118.643 202.115 118.163 201.637 117.571 201.637C116.979 201.637 116.5 202.115 116.5 202.706C116.5 203.296 116.979 203.775 117.571 203.775Z" fill="#88BD6D"/>
<path d="M107.331 239.258L110.953 279.784H116.357L115.975 277.673H125.762L125.948 279.784H134.314L134.765 277.673H142.437L142.325 279.784H147.212L150.833 239.258H107.331Z" fill="#A87C56"/>
<path d="M114.676 239.258H107.331L110.953 279.784H116.357L115.975 277.673H118.786L114.676 239.258Z" fill="#BA8A60"/>
<path d="M107.716 243.564L150.221 246.1L150.833 239.258H107.331L107.716 243.564Z" fill="url(#paint3_linear_252_254)"/>
<path d="M151.47 242.737L152.129 235.359H106.036L106.695 242.737H151.47Z" fill="#D68E4F"/>
<path d="M113.286 235.359H106.036L106.695 242.737H114.166L113.286 235.359Z" fill="#E3A874"/>
<path d="M429.606 350.689C412.342 352.021 395.626 344.878 384.353 330.872C381.551 327.392 382.109 322.305 385.597 319.509C389.08 316.715 394.183 317.266 396.985 320.751C408.135 334.6 424.065 336.358 435.239 333.396C447.327 330.188 455.59 321.661 457.347 310.582C460.154 292.886 451.211 279.026 443.321 266.797C438.912 259.968 435.108 254.069 433.73 248.004C432.742 243.651 435.475 239.322 439.839 238.334C444.204 237.349 448.54 240.077 449.529 244.43C450.277 247.716 453.515 252.734 456.941 258.046C465.456 271.246 477.118 289.321 473.346 313.107C470.6 330.431 457.591 344.189 439.402 349.016C436.14 349.884 432.862 350.437 429.606 350.689Z" fill="url(#paint4_linear_252_254)"/>
<path d="M443.801 213.635C425.107 181.649 376.91 180.482 354.711 189.226C332.511 197.969 301.728 210.36 295.216 209.919C265.62 207.913 226.856 241.688 226.856 241.688C226.856 241.688 212.749 250.432 212.749 262.381C212.749 274.331 219.639 277.537 226.856 277.537C231.319 277.537 300.483 277.537 357.392 277.537C353.346 279.23 349.412 281.456 350.183 283.513C351.935 288.185 361.528 288.769 370.699 286.803C378.883 285.048 432.293 284.648 443.947 270.398C457.384 253.967 452.331 228.232 443.801 213.635Z" fill="url(#paint5_linear_252_254)"/>
<path opacity="0.31" d="M314.49 204.672L226.854 241.689C226.854 241.689 233.158 261.045 260.952 265.754L260.924 265.757C267.11 266.466 272.562 272.102 272.296 277.539H279.245C279.245 277.539 281.01 267.635 292.09 264.904L292.102 264.889C335.55 255.768 314.49 204.672 314.49 204.672Z" fill="#874732"/>
<path d="M227.628 213.199C227.628 213.199 214.925 190.666 215.493 169.384C215.562 166.765 217.954 164.828 220.532 165.329C226.721 166.534 237.997 170.368 248 182.565L227.628 213.199Z" fill="url(#paint6_linear_252_254)"/>
<path opacity="0.5" d="M229.173 201.837C229.173 201.837 221.614 188.428 221.952 175.765C221.993 174.206 223.417 173.053 224.95 173.352C228.633 174.068 235.343 176.349 241.293 183.607L229.173 201.837Z" fill="#FF7C4F"/>
<path d="M298.695 195.208C298.695 195.208 299.096 169.357 288.428 150.92C287.115 148.65 284.087 148.086 282.061 149.752C277.195 153.755 269.115 162.488 266.15 177.969L298.695 195.208Z" fill="url(#paint7_linear_252_254)"/>
<path opacity="0.5" d="M291.907 185.952C291.907 185.952 292.146 170.57 285.799 159.6C285.017 158.25 283.215 157.913 282.011 158.906C279.116 161.288 274.307 166.484 272.543 175.695L291.907 185.952Z" fill="#FF7C4F"/>
<path d="M255.544 174.25C229.892 180.743 216.109 212.002 225.421 237.669C234.734 263.336 261.244 262.413 276.949 258.437C292.654 254.462 316.4 242.664 312.322 215.67C308.246 188.678 281.196 167.757 255.544 174.25Z" fill="url(#paint8_linear_252_254)"/>
<path d="M284.555 226.767C286.12 232.926 279.422 234.151 271.298 236.207C263.173 238.263 256.699 240.372 255.134 234.214C253.569 228.055 258.885 221.396 267.01 219.339C275.133 217.282 282.989 220.607 284.555 226.767Z" fill="#FFFBF7"/>
<path d="M286.123 202.221C280.843 201.899 275.773 204.239 272.623 208.482C271.169 210.438 273.97 213.062 275.443 211.079C278.059 207.555 281.831 205.78 286.229 206.048C288.698 206.199 288.57 202.371 286.123 202.221Z" fill="#874732"/>
<path d="M243.147 213.1C247.634 210.306 253.209 209.951 258.007 212.182C260.219 213.21 259.011 216.849 256.769 215.806C252.784 213.953 248.62 214.187 244.884 216.514C242.785 217.821 241.068 214.396 243.147 213.1Z" fill="#874732"/>
<path d="M269.657 229.752C265.33 230.847 261.736 228.538 261.49 225.807C261.244 223.074 264.408 222.443 267.594 221.636C270.779 220.83 273.864 219.88 274.952 222.398C276.041 224.919 273.985 228.657 269.657 229.752Z" fill="#874732"/>
<g opacity="0.55">
<path d="M254.426 226.945C255.662 231.804 252.715 236.745 247.845 237.977C242.975 239.21 238.024 236.27 236.789 231.41C235.554 226.551 238.5 221.611 243.37 220.378C248.24 219.146 253.191 222.086 254.426 226.945Z" fill="#FF915E"/>
<path d="M299.345 215.574C300.58 220.433 297.633 225.374 292.763 226.606C287.893 227.838 282.942 224.899 281.707 220.039C280.472 215.18 283.418 210.24 288.288 209.007C293.158 207.775 298.108 210.715 299.345 215.574Z" fill="#FF915E"/>
</g>
<path d="M230.577 234.373C230.365 234.426 230.135 234.397 229.936 234.267C229.563 234.023 229.457 233.525 229.702 233.15C233.357 227.552 240.58 227.584 240.889 227.59C241.334 227.593 241.693 227.961 241.687 228.407C241.684 228.851 241.34 229.224 240.869 229.202C240.808 229.204 234.22 229.19 231.058 234.032C230.943 234.21 230.767 234.326 230.577 234.373Z" fill="#874732"/>
<path d="M236.398 240.915C236.242 240.955 236.078 240.951 235.915 240.889C235.497 240.734 235.284 240.27 235.441 239.849C237.172 235.225 242.266 232.645 242.483 232.538C242.906 232.329 243.372 232.504 243.568 232.901C243.768 233.298 243.604 233.784 243.203 233.984C243.156 234.006 238.462 236.393 236.957 240.417C236.859 240.676 236.647 240.852 236.398 240.915Z" fill="#874732"/>
<path d="M306.218 215.226C306.029 215.275 305.82 215.257 305.634 215.156C300.522 212.386 294.761 215.544 294.702 215.576C294.326 215.809 293.822 215.659 293.602 215.266C293.384 214.878 293.522 214.384 293.913 214.169C294.181 214.016 300.525 210.561 306.404 213.735C306.797 213.948 306.943 214.437 306.731 214.829C306.617 215.037 306.43 215.172 306.218 215.226Z" fill="#874732"/>
<path d="M304.227 223.747C303.977 223.81 303.706 223.755 303.497 223.572C300.256 220.752 294.985 220.887 294.933 220.89C294.485 220.905 294.111 220.557 294.096 220.112C294.078 219.665 294.401 219.284 294.876 219.277C295.117 219.268 300.83 219.112 304.558 222.358C304.897 222.649 304.931 223.158 304.635 223.495C304.524 223.626 304.383 223.708 304.227 223.747Z" fill="#874732"/>
<g opacity="0.31">
<path d="M273.544 243.02C270.051 243.904 266.812 243.255 266.607 243.211C266.137 243.111 265.832 242.649 265.931 242.177C266.028 241.702 266.504 241.402 266.966 241.499C267.033 241.514 273.693 242.83 277.57 238.856C277.911 238.509 278.464 238.499 278.808 238.839C279.156 239.177 279.161 239.733 278.825 240.074C277.26 241.677 275.366 242.56 273.544 243.02Z" fill="#874732"/>
</g>
<g opacity="0.5">
<path d="M354.298 189.393C357.582 195.586 361.596 204.692 363.124 214.484C365.273 228.245 374.892 225.069 377.706 220.534C379.898 217.002 381.859 197.42 378.479 184.715C369.328 185.135 360.971 186.767 354.711 189.233C354.575 189.284 354.434 189.34 354.298 189.393Z" fill="#FF7C4F"/>
<path d="M383.387 184.605C385.109 190.652 386.602 198.079 386.584 205.682C386.55 219.609 396.55 217.973 400.039 213.933C402.185 211.449 405.762 199.048 406.517 187.501C398.839 185.503 390.929 184.636 383.387 184.605Z" fill="#FF7C4F"/>
<path d="M340.543 227.027C345.653 239.987 354.345 234.791 356.098 229.752C357.57 225.521 354.697 203.153 347.518 192.066C339.72 195.143 331.377 198.423 323.636 201.329C328.253 206.284 336.096 215.751 340.543 227.027Z" fill="#FF7C4F"/>
</g>
<path opacity="0.31" d="M357.39 277.534C357.39 277.534 375.376 270.285 378.807 263.399C381.158 258.684 382.167 236.208 394.951 230.465C394.951 230.465 378.881 230.465 367.299 252.47C358.58 269.033 339.374 276.806 331.049 277.535C342.661 277.534 357.39 277.534 357.39 277.534Z" fill="#874732"/>
<g opacity="0.5">
<path d="M441.206 331.168C439.329 332.047 437.367 332.833 435.239 333.398C432.853 334.03 430.241 334.43 427.514 334.559C428.221 339.33 428.23 345.153 426.097 350.836C427.263 350.823 428.434 350.78 429.607 350.689C432.863 350.436 436.141 349.884 439.404 349.018C440.041 348.849 440.654 348.645 441.278 348.453C442.411 342.16 442.075 336.152 441.206 331.168Z" fill="#FF7C4F"/>
<path d="M402.032 345.252C406.333 347.425 410.902 348.966 415.622 349.876C418.418 344.655 419.604 339.152 419.793 334.131C414.976 333.369 410.06 331.616 405.46 328.539C406.092 332.501 406.259 339.284 402.032 345.252Z" fill="#FF7C4F"/>
<path d="M464.451 333.117C462.518 325.482 458.932 319.264 456.118 315.27C454.423 320.092 451.406 324.269 447.293 327.5C449.633 331.755 451.821 337.514 451.754 343.937C456.717 341.065 461.004 337.398 464.451 333.117Z" fill="#FF7C4F"/>
</g>
<g opacity="0.31">
<path d="M256.198 272.871C255.716 272.871 255.323 273.261 255.323 273.745C255.323 274.227 255.713 274.615 256.198 274.62C256.391 274.62 260.536 274.707 261.179 277.535C261.773 277.535 262.358 277.535 262.962 277.535C262.46 273.896 258.421 272.871 256.198 272.871Z" fill="#874732"/>
<path d="M269.373 277.524C269.284 271.537 262.293 269.221 261.995 269.125C261.543 268.985 261.043 269.231 260.893 269.691C260.745 270.149 260.999 270.641 261.46 270.791C261.519 270.809 267.53 272.796 267.616 277.536C268.191 277.536 268.783 277.536 269.365 277.536C269.368 277.532 269.373 277.529 269.373 277.524Z" fill="#874732"/>
</g>
<g opacity="0.31">
<path d="M283.659 277.539C284.618 273.189 288.449 271.501 288.635 271.424C289.08 271.233 289.285 270.721 289.098 270.277C288.909 269.836 288.389 269.621 287.954 269.812C287.724 269.906 282.914 272.035 281.906 277.539C282.484 277.539 283.075 277.539 283.659 277.539Z" fill="#874732"/>
<path d="M292.137 274.509C292.559 274.269 292.705 273.737 292.466 273.316C292.23 272.9 291.695 272.753 291.278 272.985C291.136 273.062 288.614 274.516 287.54 277.537C288.175 277.537 288.822 277.537 289.463 277.537C290.399 275.557 292.035 274.565 292.137 274.509Z" fill="#874732"/>
</g>
<g opacity="0.31">
<path d="M363.248 281.814C363.027 281.895 358.68 283.554 356.233 287.365C356.849 287.49 357.47 287.608 358.145 287.681C360.347 284.802 363.801 283.473 363.846 283.457C364.299 283.293 364.535 282.791 364.367 282.337C364.199 281.882 363.686 281.66 363.248 281.814Z" fill="#874732"/>
<path d="M361.618 280.174C361.525 279.703 361.08 279.402 360.587 279.487C360.316 279.541 354.942 280.686 350.536 284.06C350.818 284.561 351.182 285.014 351.652 285.41C355.748 282.305 360.871 281.212 360.931 281.202C361.406 281.106 361.714 280.645 361.618 280.174Z" fill="#874732"/>
</g>
<defs>
<radialGradient id="paint0_radial_252_254" cx="0" cy="0" r="1" gradientUnits="userSpaceOnUse" gradientTransform="translate(295.764 277.575) scale(289.441 14.3171)">
<stop stop-color="#E8E8D0"/>
<stop offset="1" stop-color="white"/>
</radialGradient>
<linearGradient id="paint1_linear_252_254" x1="142.74" y1="196.722" x2="135.448" y2="238.646" gradientUnits="userSpaceOnUse">
<stop stop-color="#A1D685"/>
<stop offset="1" stop-color="#71C782"/>
</linearGradient>
<linearGradient id="paint2_linear_252_254" x1="118.656" y1="200.36" x2="122.203" y2="237.497" gradientUnits="userSpaceOnUse">
<stop offset="0.1134" stop-color="#A1D685"/>
<stop offset="1" stop-color="#71C782"/>
</linearGradient>
<linearGradient id="paint3_linear_252_254" x1="107.332" y1="242.678" x2="150.833" y2="242.678" gradientUnits="userSpaceOnUse">
<stop stop-color="#805E41"/>
<stop offset="1" stop-color="#A87C56"/>
</linearGradient>
<linearGradient id="paint4_linear_252_254" x1="435.177" y1="335.456" x2="413.992" y2="260.639" gradientUnits="userSpaceOnUse">
<stop stop-color="#FFDA5E"/>
<stop offset="1" stop-color="#E89540"/>
</linearGradient>
<linearGradient id="paint5_linear_252_254" x1="332.486" y1="241.688" x2="332.486" y2="331.784" gradientUnits="userSpaceOnUse">
<stop stop-color="#FFDA5E"/>
<stop offset="1" stop-color="#E89540"/>
</linearGradient>
<linearGradient id="paint6_linear_252_254" x1="228.568" y1="179.347" x2="260.265" y2="243.405" gradientUnits="userSpaceOnUse">
<stop stop-color="#FFDA5E"/>
<stop offset="1" stop-color="#E89540"/>
</linearGradient>
<linearGradient id="paint7_linear_252_254" x1="281.695" y1="165.898" x2="284.297" y2="237.289" gradientUnits="userSpaceOnUse">
<stop stop-color="#FFDA5E"/>
<stop offset="1" stop-color="#E89540"/>
</linearGradient>
<linearGradient id="paint8_linear_252_254" x1="263.299" y1="204.747" x2="295.768" y2="333.021" gradientUnits="userSpaceOnUse">
<stop stop-color="#FFDA5E"/>
<stop offset="1" stop-color="#E89540"/>
</linearGradient>
</defs>
</svg>
